<?xml version="1.0" encoding="utf-8"?>
<!-- Generator: Adobe Illustrator 23.0.2, SVG Export Plug-In . SVG Version: 6.00 Build 0)  -->
<svg version="1.1" id="Layer_1" xmlns="http://www.w3.org/2000/svg" xmlns:xlink="http://www.w3.org/1999/xlink" x="0px" y="0px"
	 viewBox="0 0 150 345" style="enable-background:new 0 0 150 345;" xml:space="preserve">
<style type="text/css">
	.st0{fill:#D5B573;}
	.st1{fill:#1A73E8;}
	.st2{fill:#EA8600;}
	.st3{opacity:0.1;clip-path:url(#SVGID_2_);fill:#D5B573;}
	.st4{fill:none;stroke:#070707;stroke-width:0.9496;stroke-linecap:round;stroke-linejoin:round;stroke-miterlimit:10;}
	.st5{fill:#FBBC04;}
	.st6{fill:#FEEFC3;}
	.st7{fill:none;stroke:#FEEFC3;stroke-width:1.4244;stroke-linecap:round;stroke-linejoin:round;stroke-miterlimit:10;}
	.st8{fill:#E37400;}
	.st9{fill:#174EA6;}
	.st10{fill:#4285F4;}
	.st11{fill:#EEEEEE;}
	.st12{fill:#34A853;}
</style>
<g>
	<g>
		<path d="M103.97,116.27c-0.98-2.72-0.95-5.69-1.58-8.5c-0.45-2.02-1.23-3.94-1.77-5.93c-0.54-1.99-0.85-4.12-0.32-6.11
			c0.18-0.69,0.47-1.37,0.93-1.9c0.81-0.93,2.13-1.15,3.37-1.04c3.35,0.3,4.02,3.51,4.06,6.32
			C108.73,104.97,106.75,111.12,103.97,116.27z"/>
		<path d="M102.62,99.78l0.98,7.41h-1.39c-0.69,0-1.3-0.43-1.55-1.07l-5.27-14.04l6.75,1.38C102.14,93.47,102.55,95.49,102.62,99.78
			z"/>
		<g>
			<g>
				<path d="M37.82,113.31l-7.67,1.46c-0.86,0.16-1.36,1.08-1.04,1.89l7.9,19.75c0.26,0.65,0.96,1.01,1.64,0.84l7.26-1.82
					c0.82-0.2,1.27-1.08,0.97-1.86l-7.49-19.4C39.14,113.55,38.48,113.19,37.82,113.31z"/>
				<path class="st0" d="M38.07,136.99c0,0,13.73,16.18,20,30.75c0,0-2.06,3.96-7.03,2.89c-4.98-1.07-19.94-34.75-19.94-34.75
					s-1.65-3.86-1.44-8.78c0.03-0.77,0.21-1.52,0.5-2.23l2.99-7.37c0.14-0.35,0.44-0.62,0.8-0.74h0c0.55-0.17,1.15,0.04,1.46,0.53
					l0.11,0.17c0.21,0.33,0.26,0.74,0.13,1.12l-1.88,5.37l5.34-4.71c0.15-0.13,0.33-0.22,0.52-0.27l0.21-0.05
					c0.76-0.18,1.49,0.41,1.48,1.19l0,0c0,0.29-0.12,0.58-0.32,0.79l-4.26,4.59l4.77-3.24c0.18-0.11,0.38-0.17,0.59-0.17l0.12,0
					c0.58,0.01,1.05,0.49,1.04,1.07l0,0c0,0.28-0.12,0.55-0.32,0.74l-4.25,4.12l3.72-1.36c0.19-0.05,0.39-0.04,0.58,0.02h0
					c0.61,0.21,0.85,0.94,0.48,1.47l-0.17,0.25c-0.08,0.12-0.19,0.22-0.31,0.29l-2.68,1.27c-0.09,0.04-0.15,0.13-0.17,0.23
					C40.03,131.01,39.43,134.79,38.07,136.99z"/>
				<polygon class="st1" points="108.59,301.57 96.9,301.57 79.37,230.95 70.12,301.57 58.92,301.57 58.43,213.42 98.37,213.42 				
					"/>
				<path class="st2" d="M52.73,157.51l5.2,10.49l21.97-15.79c1.34-1.15,2.18-2.78,2.32-4.55l0.01-0.09
					c0.31-3.96-2.88-7.31-6.85-7.2h0c-1.81,0.05-3.53,0.84-4.74,2.18L52.73,157.51z"/>
				
					<rect x="76.9" y="131.42" transform="matrix(-1 -2.014137e-10 2.014137e-10 -1 166.7735 276.378)" class="st0" width="12.98" height="13.53"/>
				<g>
					<defs>
						<path id="SVGID_1_" d="M59.93,93.99c6.8-6.34,24.75-16.66,41.85,6.19c0.67-0.44,1.47-0.7,2.32-0.7c2.34,0,4.24,1.9,4.24,4.24
							c0,2.12-1.56,3.87-3.59,4.19c0.58,3.97,0.37,8.91-2.4,13.53c-5.99,9.98-16.47,10.98-16.47,10.98s-13.48,1.5-20.96-9.48
							S59.93,93.99,59.93,93.99z"/>
					</defs>
					<use xlink:href="#SVGID_1_"  style="overflow:visible;fill:#D5B573;"/>
					<clipPath id="SVGID_2_">
						<use xlink:href="#SVGID_1_"  style="overflow:visible;"/>
					</clipPath>
					<path class="st3" d="M64.93,97.16l-7.66-5.42l1.94,27.5l9.81,11.45l6.46,0.31C75.49,131,60.85,117.61,64.93,97.16z"/>
				</g>
				<path class="st4" d="M71.47,109.34c-0.57-1.66-2.25-1.97-3.44-1.8l0,0c-1.07,0.14-2.48,0.86-2.84,2.45"/>
				<path class="st4" d="M81.74,108.63c-0.57-1.66-2.25-1.97-3.44-1.8h0c-1.07,0.14-2.48,0.86-2.84,2.45"/>
				<path class="st5" d="M75.86,139.27L75.86,139.27c0.55-0.29,1.22-0.15,1.6,0.35c1.25,1.64,2.97,4.99,4.19,5.01
					c1.73,0.02,6.79-5.08,8.22-6.38c0.26-0.24,1.37-0.07,1.69,0.08l4.07,1.93l5,71.55c0.12,1.68-1.21,3.11-2.89,3.11H59.07
					c-1.69,0-3.03-1.44-2.89-3.13c0.8-10.2,15.03-60.53,17.77-70.15C74.24,140.62,74.93,139.77,75.86,139.27z"/>
				<path class="st0" d="M48.07,131c0.83,0.01,1.65,0.28,2.33,0.76l5.79,4.14c0,0,0-1.47,1.96-1.47c0.52,0,1.17,0.27,1.85,0.67
					c2.44,1.43,4.11,3.89,4.68,6.65c0.48,2.3,0.08,3.47-0.16,5.42l24.03,28.44l-2.83,5.07c-1.01,1.82-3.11,2.86-5.13,2.35
					c-1.05-0.26-2.02-0.89-2.71-1.87L58.16,151.6c0,0-9.94-2.44-9.81-8.83c0.03-1.72,2.44-3.88,5.88-4.41l-6.5-4.77
					c-0.57-0.42-0.92-1.11-0.83-1.82C46.97,131.16,47.27,130.99,48.07,131z"/>
				<path class="st2" d="M80.95,166.61l7.61,9.01l10.94-26.53c0.67-1.64,0.66-3.47-0.03-5.1l-0.03-0.08
					c-1.54-3.66-5.92-5.17-9.39-3.24l0,0c-1.59,0.88-2.74,2.37-3.21,4.12L80.95,166.61z"/>
			</g>
			<g>
				<path class="st6" d="M34.94,319.1h37.32v-4.6H33.71v3.37C33.71,318.56,34.26,319.1,34.94,319.1z"/>
				<path class="st5" d="M72.26,314.51v-15.73H56.4c0,0-1.21,11.13-14.76,11.13v4.6H72.26z"/>
				<path class="st6" d="M33.71,314.83h11.94v-1.85c0-1.7-1.38-3.08-3.08-3.08h-5.78c-1.7,0-3.08,1.38-3.08,3.08V314.83z"/>
				<line class="st7" x1="52.98" y1="305.14" x2="57.63" y2="305.14"/>
				<line class="st7" x1="49.6" y1="307.64" x2="56.95" y2="307.64"/>
				<path class="st6" d="M56.35,298.77h15.91v-0.28c0-0.57-0.46-1.03-1.03-1.03H57.38c-0.57,0-1.03,0.46-1.03,1.03V298.77z"/>
				<path class="st8" d="M34.94,319.1h37.32v-1.77H33.71v0.54C33.71,318.56,34.26,319.1,34.94,319.1z"/>
			</g>
			<g>
				<path class="st6" d="M72.96,319.1h37.32v-4.6H71.73v3.37C71.73,318.56,72.28,319.1,72.96,319.1z"/>
				<path class="st5" d="M110.28,314.51v-15.73H94.42c0,0-1.21,11.13-14.76,11.13v4.6H110.28z"/>
				<path class="st6" d="M71.73,314.83h11.94v-1.85c0-1.7-1.38-3.08-3.08-3.08h-5.78c-1.7,0-3.08,1.38-3.08,3.08V314.83z"/>
				<line class="st7" x1="91.01" y1="305.14" x2="95.66" y2="305.14"/>
				<line class="st7" x1="87.63" y1="307.64" x2="94.97" y2="307.64"/>
				<path class="st6" d="M94.37,298.77h15.91v-0.28c0-0.57-0.46-1.03-1.03-1.03H95.4c-0.57,0-1.03,0.46-1.03,1.03V298.77z"/>
				<path class="st8" d="M72.96,319.1h37.32v-1.77H71.73v0.54C71.73,318.56,72.28,319.1,72.96,319.1z"/>
			</g>
		</g>
		<path class="st4" d="M70.9,119.81c0,0,5.17,4.79,11.35-1.84"/>
	</g>
	<path d="M102.52,99.79l0.24,6.67l-3.53-0.02c0,0,0-10.27-4-12.4c-2.99-1.59,8.95,0,8.95,0L102.52,99.79z"/>
	<g>
		<path class="st9" d="M105.69,85.78c-2.66-4.54-6.85-7.86-11.89-9.35c-4.62-1.37-11.41-1.34-16.14-0.42
			c2.34,0.27,6.1,2.03,7.54,3.9c3.8,4.92,5.08,11.35,5.32,17.56c5.59-0.45,12.15-0.9,17.74-1.36
			C108.3,95.26,107.57,88.98,105.69,85.78z"/>
		<path class="st10" d="M79.36,75.99c-0.27-0.03-0.55-0.05-0.82-0.03l-0.87,0.05c-10.32,0.63-18.26,9.14-18.37,19.32l27.56-1.68
			l0.16,2.7l0,0l0.08,1.33l3.4-0.21l0,0l-0.16-2.61C89.72,84.62,84.38,76.53,79.36,75.99z"/>
		<path class="st5" d="M85,75.57c0.41-0.03,0.73-0.38,0.71-0.8l-0.05-0.9c-0.03-0.41-0.38-0.73-0.8-0.71l-4.18,0.26
			c-0.41,0.03-0.73,0.38-0.71,0.8l0.05,0.9c0.03,0.41,0.38,0.73,0.8,0.71l0.2-0.01l0.9-0.05L85,75.57z"/>
		<polygon class="st5" points="87.02,96.35 87.02,96.35 86.86,93.65 68.2,94.79 48.19,95.92 48.27,97.27 48.27,97.27 48.44,99.98 
			87.1,97.7 87.1,97.68 		"/>
	</g>
</g>
<g>
	<g>
		<polygon class="st11" points="29.98,21.21 29.98,65.7 29.98,65.7 126.2,65.7 126.2,21.21 		"/>
		<g>
			<polygon class="st12" points="53.6,33.02 56.19,40.99 64.57,40.99 57.79,45.92 60.38,53.89 53.6,48.96 46.82,53.89 49.41,45.92 
				42.63,40.99 51.01,40.99 			"/>
			<polygon class="st12" points="78.09,33.02 80.68,40.99 89.06,40.99 82.28,45.92 84.87,53.89 78.09,48.96 71.31,53.89 73.9,45.92 
				67.12,40.99 75.5,40.99 			"/>
			<polygon class="st12" points="102.58,33.02 105.16,40.99 113.55,40.99 106.77,45.92 109.36,53.89 102.58,48.96 95.79,53.89 
				98.38,45.92 91.6,40.99 99.99,40.99 			"/>
		</g>
	</g>
	<polygon class="st11" points="30.95,47.16 25.69,71.09 49.04,63.69 	"/>
</g>
</svg>
