<?xml version="1.0" encoding="utf-8"?>
<!-- Generator: Adobe Illustrator 23.0.2, SVG Export Plug-In . SVG Version: 6.00 Build 0)  -->
<svg version="1.1" id="Layer_1" xmlns="http://www.w3.org/2000/svg" xmlns:xlink="http://www.w3.org/1999/xlink" x="0px" y="0px"
	 viewBox="0 0 257.69 34" style="enable-background:new 0 0 257.69 34;" xml:space="preserve">
<style type="text/css">
	.st0{fill:#545656;}
	.st1{fill:#4285F4;}
	.st2{fill:#EA4335;}
	.st3{fill:#FBBC04;}
	.st4{fill:#34A853;}
	.st5{fill:#E64217;}
</style>
<g>
	<g>
		<g>
			<g>
				<path class="st0" d="M111.43,15.6c0,2.49-0.74,4.47-2.22,5.95c-1.68,1.76-3.86,2.64-6.55,2.64c-2.57,0-4.76-0.89-6.56-2.68
					c-1.8-1.78-2.7-4-2.7-6.63c0-2.64,0.9-4.85,2.7-6.63c1.8-1.78,3.99-2.68,6.56-2.68c1.28,0,2.5,0.25,3.66,0.75
					c1.16,0.5,2.09,1.16,2.79,1.99l-1.57,1.57c-1.18-1.41-2.8-2.12-4.88-2.12c-1.88,0-3.5,0.66-4.87,1.98
					c-1.37,1.32-2.05,3.03-2.05,5.14s0.68,3.82,2.05,5.14c1.37,1.32,2.99,1.98,4.87,1.98c1.99,0,3.65-0.66,4.98-1.99
					c0.86-0.86,1.36-2.07,1.49-3.61h-6.47v-2.14h8.64C111.38,14.72,111.43,15.17,111.43,15.6z"/>
				<path class="st0" d="M115.88,23.79h-2.29v-12.2h2.19v1.99h0.1c0.23-0.66,0.71-1.21,1.43-1.64c0.72-0.43,1.42-0.65,2.1-0.65
					c0.68,0,1.25,0.1,1.72,0.3l-0.87,2.14c-0.3-0.12-0.71-0.17-1.22-0.17c-0.83,0-1.56,0.33-2.2,0.98
					c-0.64,0.66-0.96,1.51-0.96,2.58V23.79z"/>
				<path class="st0" d="M123.47,13.05c1.18-1.24,2.68-1.85,4.51-1.85c1.83,0,3.33,0.62,4.51,1.85c1.18,1.24,1.77,2.78,1.77,4.64
					s-0.59,3.41-1.77,4.64c-1.18,1.24-2.68,1.85-4.51,1.85c-1.83,0-3.33-0.62-4.51-1.85c-1.18-1.24-1.77-2.78-1.77-4.64
					S122.29,14.28,123.47,13.05z M125.18,20.89c0.79,0.81,1.72,1.21,2.8,1.21c1.08,0,2.01-0.4,2.8-1.21c0.79-0.8,1.18-1.87,1.18-3.2
					c0-1.33-0.39-2.39-1.18-3.2c-0.79-0.8-1.72-1.21-2.8-1.21c-1.08,0-2.01,0.4-2.8,1.21c-0.79,0.8-1.18,1.87-1.18,3.2
					C124,19.02,124.39,20.08,125.18,20.89z"/>
				<path class="st0" d="M149.46,23.79h-2.34l-3.04-9.36l-3.01,9.36h-2.32l-3.93-12.2h2.39l2.71,9.21h0.02l3.01-9.21h2.36l3.01,9.21
					h0.02l2.69-9.21h2.34L149.46,23.79z"/>
				<path class="st0" d="M160.31,23.79V5.96h2.29l6.2,10.85h0.1l6.2-10.85h2.29v17.82h-2.29V13.21l0.1-2.99h-0.1L169.53,20h-1.34
					l-5.58-9.78h-0.1l0.1,2.99v10.58H160.31z"/>
				<path class="st0" d="M183.61,29.16h-2.36l2.84-6.15l-5.03-11.43h2.49l3.63,8.76h0.05l3.53-8.76h2.49L183.61,29.16z"/>
				<path class="st0" d="M203.2,24.19c-1.29,0-2.56-0.42-3.8-1.27c-1.24-0.85-2.05-2.03-2.43-3.56l2.09-0.85
					c0.25,0.98,0.76,1.8,1.53,2.48c0.77,0.67,1.64,1.01,2.6,1.01c1,0,1.85-0.26,2.55-0.78c0.71-0.52,1.06-1.23,1.06-2.13
					c0-1-0.35-1.76-1.06-2.3c-0.71-0.54-1.82-1.04-3.35-1.51c-1.58-0.5-2.77-1.14-3.58-1.93c-0.81-0.79-1.22-1.8-1.22-3.02
					c0-1.28,0.51-2.39,1.52-3.34s2.33-1.42,3.96-1.42c1.51,0,2.74,0.38,3.68,1.13c0.95,0.76,1.56,1.58,1.84,2.48l-2.09,0.87
					c-0.15-0.56-0.52-1.09-1.11-1.57c-0.59-0.48-1.35-0.72-2.28-0.72c-0.88,0-1.63,0.25-2.25,0.73c-0.62,0.49-0.93,1.1-0.93,1.83
					c0,0.66,0.29,1.22,0.86,1.68c0.57,0.46,1.41,0.87,2.53,1.23c0.88,0.28,1.61,0.56,2.2,0.82c0.59,0.27,1.19,0.62,1.79,1.06
					c0.61,0.44,1.06,0.99,1.37,1.64c0.31,0.66,0.46,1.41,0.46,2.28c0,0.86-0.18,1.63-0.53,2.32c-0.36,0.68-0.83,1.22-1.42,1.62
					c-0.59,0.4-1.22,0.7-1.9,0.91C204.62,24.08,203.92,24.19,203.2,24.19z"/>
				<path class="st0" d="M216.6,23.99c-1.28,0-2.25-0.34-2.92-1.02c-0.67-0.68-1.01-1.64-1.01-2.89v-6.4h-2.14v-2.09h2.14V7.86h2.29
					v3.73h2.99v2.09h-2.99v6.22c0,1.33,0.55,1.99,1.64,1.99c0.41,0,0.76-0.07,1.05-0.2l0.8,1.97
					C217.94,23.88,217.33,23.99,216.6,23.99z"/>
				<path class="st0" d="M220.98,13.05c1.18-1.24,2.68-1.85,4.51-1.85c1.83,0,3.33,0.62,4.51,1.85c1.18,1.24,1.77,2.78,1.77,4.64
					s-0.59,3.41-1.77,4.64c-1.18,1.24-2.68,1.85-4.51,1.85c-1.83,0-3.33-0.62-4.51-1.85c-1.18-1.24-1.77-2.78-1.77-4.64
					S219.8,14.28,220.98,13.05z M222.68,20.89c0.79,0.81,1.72,1.21,2.8,1.21s2.01-0.4,2.8-1.21c0.79-0.8,1.18-1.87,1.18-3.2
					c0-1.33-0.39-2.39-1.18-3.2c-0.79-0.8-1.72-1.21-2.8-1.21s-2.01,0.4-2.8,1.21c-0.79,0.8-1.18,1.87-1.18,3.2
					C221.5,19.02,221.89,20.08,222.68,20.89z"/>
				<path class="st0" d="M235.91,23.79h-2.29v-12.2h2.19v1.99h0.1c0.23-0.66,0.71-1.21,1.43-1.64c0.72-0.43,1.42-0.65,2.1-0.65
					c0.68,0,1.25,0.1,1.72,0.3l-0.87,2.14c-0.3-0.12-0.71-0.17-1.22-0.17c-0.83,0-1.56,0.33-2.2,0.98
					c-0.64,0.66-0.96,1.51-0.96,2.58V23.79z"/>
				<path class="st0" d="M247.96,24.19c-1.84,0-3.34-0.61-4.49-1.84c-1.15-1.23-1.73-2.78-1.73-4.66c0-1.78,0.56-3.3,1.68-4.58
					c1.12-1.28,2.55-1.92,4.29-1.92c1.81,0,3.26,0.59,4.34,1.77c1.09,1.18,1.63,2.75,1.63,4.73l-0.02,0.42h-9.63
					c0.07,1.23,0.48,2.2,1.23,2.91c0.75,0.71,1.64,1.07,2.65,1.07c1.64,0,2.75-0.7,3.34-2.09l2.04,0.85
					c-0.4,0.95-1.05,1.74-1.97,2.38C250.41,23.87,249.29,24.19,247.96,24.19z M251.25,16.22c-0.05-0.7-0.37-1.36-0.96-1.99
					c-0.59-0.63-1.46-0.95-2.63-0.95c-0.85,0-1.58,0.27-2.2,0.8s-1.05,1.24-1.28,2.14H251.25z"/>
			</g>
		</g>
	</g>
	<g>
		<path class="st1" d="M16.23,24.17C10.67,24.17,6,19.65,6,14.09C6,8.53,10.67,4,16.23,4c3.08,0,5.26,1.21,6.91,2.78L21.2,8.72
			c-1.18-1.11-2.78-1.97-4.97-1.97C12.17,6.76,9,10.03,9,14.09c0,4.06,3.17,7.33,7.23,7.33c2.63,0,4.13-1.06,5.09-2.02
			c0.79-0.79,1.3-1.92,1.5-3.47h-6.59v-2.75h9.27c0.1,0.49,0.15,1.08,0.15,1.72c0,2.07-0.57,4.62-2.39,6.44
			C21.5,23.19,19.23,24.17,16.23,24.17z"/>
		<path class="st2" d="M40,17.68c0,3.74-2.87,6.49-6.4,6.49c-3.53,0-6.4-2.75-6.4-6.49c0-3.76,2.87-6.49,6.4-6.49
			C37.12,11.18,40,13.91,40,17.68z M37.2,17.68c0-2.34-1.67-3.94-3.6-3.94c-1.93,0-3.6,1.6-3.6,3.94c0,2.31,1.67,3.94,3.6,3.94
			C35.53,21.61,37.2,19.99,37.2,17.68z"/>
		<path class="st3" d="M54.35,17.68c0,3.74-2.87,6.49-6.4,6.49c-3.53,0-6.4-2.75-6.4-6.49c0-3.76,2.87-6.49,6.4-6.49
			C51.47,11.18,54.35,13.91,54.35,17.68z M51.54,17.68c0-2.34-1.67-3.94-3.6-3.94c-1.93,0-3.6,1.6-3.6,3.94
			c0,2.31,1.67,3.94,3.6,3.94C49.88,21.61,51.54,19.99,51.54,17.68z"/>
		<path class="st1" d="M68.34,11.58v11.66c0,4.8-2.83,6.76-6.17,6.76c-3.15,0-5.04-2.12-5.76-3.84l2.48-1.03
			c0.44,1.06,1.53,2.31,3.27,2.31c2.14,0,3.47-1.33,3.47-3.81V22.7h-0.1c-0.64,0.79-1.87,1.48-3.42,1.48
			c-3.25,0-6.22-2.83-6.22-6.47c0-3.67,2.98-6.52,6.22-6.52c1.55,0,2.78,0.69,3.42,1.45h0.1v-1.06H68.34z M65.83,17.7
			c0-2.29-1.53-3.96-3.47-3.96c-1.97,0-3.62,1.67-3.62,3.96c0,2.26,1.65,3.91,3.62,3.91C64.3,21.61,65.83,19.97,65.83,17.7z"/>
		<path class="st4" d="M73.34,4.69v19.09h-2.85V4.69H73.34z"/>
		<path class="st5" d="M84.55,19.82l2.21,1.48c-0.71,1.06-2.44,2.88-5.41,2.88c-3.69,0-6.35-2.85-6.35-6.49
			c0-3.86,2.69-6.49,6.03-6.49c3.37,0,5.02,2.68,5.56,4.13l0.3,0.74l-8.68,3.59c0.66,1.3,1.7,1.97,3.15,1.97
			C82.81,21.61,83.82,20.9,84.55,19.82z M77.74,17.48l5.81-2.41c-0.32-0.81-1.28-1.38-2.41-1.38
			C79.68,13.69,77.67,14.97,77.74,17.48z"/>
	</g>
</g>
</svg>
